<svg width="61" height="60" viewBox="0 0 61 60" fill="none" xmlns="http://www.w3.org/2000/svg">
<path d="M60.5 30C60.5 46.5685 47.0685 60 30.5 60C13.9315 60 0.5 46.5685 0.5 30C0.5 13.4315 13.9315 0 30.5 0C47.0685 0 60.5 13.4315 60.5 30Z" fill="#282A2E"/>
<path d="M27.96 26.3867L33.6133 32.0401L23.6533 42.0001H18V36.3467L27.96 26.3867ZM41.2133 22.5467L37.4533 18.7867C37.3294 18.6618 37.1819 18.5626 37.0194 18.4949C36.857 18.4272 36.6827 18.3923 36.5067 18.3923C36.3307 18.3923 36.1564 18.4272 35.9939 18.4949C35.8314 18.5626 35.684 18.6618 35.56 18.7867L31.72 22.6267L37.3733 28.2801L41.2133 24.4401C41.3383 24.3161 41.4375 24.1686 41.5052 24.0062C41.5729 23.8437 41.6077 23.6694 41.6077 23.4934C41.6077 23.3174 41.5729 23.1431 41.5052 22.9806C41.4375 22.8182 41.3383 22.6707 41.2133 22.5467Z" fill="white" stroke="white" stroke-width="2" stroke-linecap="round" stroke-linejoin="round"/>
</svg>
